<?xml version="1.0" encoding="UTF-8" standalone="no"?>
   <!-- Icon by Aficons on freeicons.io -->
<svg
   xmlns:dc="http://purl.org/dc/elements/1.1/"
   xmlns:cc="http://creativecommons.org/ns#"
   xmlns:rdf="http://www.w3.org/1999/02/22-rdf-syntax-ns#"
   xmlns:svg="http://www.w3.org/2000/svg"
   xmlns="http://www.w3.org/2000/svg"
   xmlns:sodipodi="http://sodipodi.sourceforge.net/DTD/sodipodi-0.dtd"
   xmlns:inkscape="http://www.inkscape.org/namespaces/inkscape"
   width="64"
   height="64"
   viewBox="0 0 16.933333 16.933334"
   version="1.1"
   id="svg8"
   inkscape:version="0.92.3 (2405546, 2018-03-11)"
   sodipodi:docname="06-Creativity.svg"
   inkscape:export-filename="/home/wanzabuyumna/@WANZ_DESIGN/NICON STUDIO MAGANG/Style Line/Style Line/Icon 6/Icon 6.png"
   inkscape:export-xdpi="96"
   inkscape:export-ydpi="96">
  <defs
     id="defs2" />
  <sodipodi:namedview
     id="base"
     pagecolor="#ffffff"
     bordercolor="#959595"
     borderopacity="1"
     inkscape:pageopacity="0"
     inkscape:pageshadow="2"
     inkscape:zoom="5.6"
     inkscape:cx="16.794188"
     inkscape:cy="5.6892658"
     inkscape:document-units="px"
     inkscape:current-layer="layer1"
     inkscape:document-rotation="0"
     showgrid="false"
     units="px"
     inkscape:window-width="1920"
     inkscape:window-height="1040"
     inkscape:window-x="0"
     inkscape:window-y="0"
     inkscape:window-maximized="1"
     inkscape:pagecheckerboard="0"
     inkscape:snap-global="true"
     inkscape:snap-page="true"
     inkscape:snap-bbox="true"
     inkscape:bbox-nodes="true" />
  <metadata
     id="metadata5">
    <rdf:RDF>
      <cc:Work
         rdf:about="">
        <dc:format>image/svg+xml</dc:format>
        <dc:type
           rdf:resource="http://purl.org/dc/dcmitype/StillImage" />
      </cc:Work>
    </rdf:RDF>
  </metadata>
  <g
     inkscape:label="06-Creativity"
     inkscape:groupmode="layer"
     id="layer1">
    <path
       style="color:#000000;font-style:normal;font-variant:normal;font-weight:normal;font-stretch:normal;font-size:medium;line-height:normal;font-family:sans-serif;font-variant-ligatures:normal;font-variant-position:normal;font-variant-caps:normal;font-variant-numeric:normal;font-variant-alternates:normal;font-feature-settings:normal;text-indent:0;text-align:start;text-decoration:none;text-decoration-line:none;text-decoration-style:solid;text-decoration-color:#000000;letter-spacing:normal;word-spacing:normal;text-transform:none;writing-mode:lr-tb;direction:ltr;text-orientation:mixed;dominant-baseline:auto;baseline-shift:baseline;text-anchor:start;white-space:normal;shape-padding:0;clip-rule:nonzero;display:inline;overflow:visible;visibility:visible;opacity:1;isolation:auto;mix-blend-mode:normal;color-interpolation:sRGB;color-interpolation-filters:linearRGB;solid-color:#000000;solid-opacity:1;vector-effect:none;fill:#3c5dfe;fill-opacity:1;fill-rule:nonzero;stroke:none;stroke-width:0.52916658;stroke-linecap:butt;stroke-linejoin:round;stroke-miterlimit:4;stroke-dasharray:none;stroke-dashoffset:0;stroke-opacity:1;color-rendering:auto;image-rendering:auto;shape-rendering:auto;text-rendering:auto;enable-background:accumulate"
       d="M 8.466676,0 C 7.9483312,0.00105833 7.601053,0.05860199 7.3628401,0.17828348 7.0873094,0.31669215 6.9714198,0.53494671 6.8920561,0.71571774 6.8126527,0.89648615 6.7624843,1.0452881 6.6145468,1.2154282 6.4708084,1.3807291 6.2293746,1.5647541 5.7525627,1.7575134 5.2757586,1.9502727 4.9703104,1.9847397 4.7520822,1.9657691 4.5425614,1.9475658 4.3799879,1.8702693 4.2203184,1.8045389 3.9846959,1.7053389 3.7761633,1.6546717 3.4968305,1.7420105 3.217495,1.8293123 2.932482,2.0361085 2.5314909,2.4303398 2.1304916,2.8245685 1.9133897,3.1207346 1.8266069,3.3827352 1.7247106,3.6903236 1.8050436,3.9196692 1.8767342,4.1036208 1.9484351,4.2875695 2.0144573,4.4297598 2.0297003,4.6482895 2.0448875,4.8668193 2.006285,5.1644129 1.805419,5.6378922 1.6045582,6.1113715 1.4103748,6.3553385 1.2426487,6.4962366 1.0749279,6.6371482 0.92449921,6.6845509 0.74240845,6.7608196 0.5452096,6.8434198 0.33558018,6.9611346 0.19824215,7.2233231 0.06243611,7.4825722 0.00511618,7.8335418 3.1651656e-4,8.3958601 -0.00468423,8.9581891 0.04931344,9.3141018 0.18067173,9.5756316 c 0.1373777,0.273518 0.35772189,0.3877847 0.53848176,0.4671544 0.18075986,0.0794 0.32668511,0.12755 0.49197181,0.271301 0.1652999,0.143739 0.3545291,0.392367 0.547267,0.869197 0.1927114,0.476839 0.2261987,0.782214 0.2072276,1.000454 -0.018997,0.218239 -0.092599,0.356295 -0.1674358,0.538985 -0.074802,0.1827 -0.151545,0.416443 -0.058396,0.714684 0.082803,0.26493 0.2951816,0.565844 0.6893807,0.966865 0.39421,0.401018 0.6787484,0.612309 0.9565545,0.704349 0.3044953,0.100878 0.5281918,0.02363 0.7121188,-0.04806 0.1839402,-0.0717 0.3297785,-0.140306 0.5483006,-0.155546 0.2185196,-0.01519 0.521344,0.0245 0.9947958,0.225309 0.4734439,0.20088 0.7133359,0.392958 0.8542327,0.560688 0.1408967,0.16773 0.1898855,0.320712 0.2661403,0.502812 0.090701,0.218269 0.2068982,0.409891 0.4661328,0.545702 0.2417532,0.12665 0.6014943,0.188987 1.1637822,0.193787 0.027601,2.01e-4 0.048847,-0.0011 0.075449,-0.0021 0.026601,4e-5 0.047847,0.0021 0.075449,0.0021 0.5622878,-0.005 0.9220317,-0.06711 1.1637822,-0.193787 0.2592345,-0.135811 0.3753993,-0.327433 0.4661323,-0.545702 0.0763,-0.1821 0.125254,-0.335082 0.266141,-0.502812 0.140896,-0.16773 0.380779,-0.359808 0.854233,-0.560688 0.473444,-0.20088 0.776284,-0.240549 0.994796,-0.225309 0.218521,0.01521 0.36437,0.0839 0.5483,0.155546 0.18394,0.0717 0.407626,0.148856 0.712119,0.04806 0.277805,-0.092 0.562872,-0.303331 0.957071,-0.704349 0.394209,-0.401021 0.60609,-0.701935 0.688864,-0.966865 0.0932,-0.298241 0.01641,-0.531984 -0.05839,-0.714684 -0.0748,-0.18269 -0.148466,-0.320746 -0.167436,-0.538985 -0.019,-0.21824 0.0145,-0.523615 0.207228,-1.000454 0.192748,-0.47683 0.381967,-0.725458 0.547267,-0.869197 0.165286,-0.143751 0.311212,-0.191931 0.491971,-0.271301 0.18075,-0.079399 0.401116,-0.1936364 0.538482,-0.4671544 C 16.884052,9.3141018 16.93784,8.9581891 16.93304,8.3958601 16.92804,7.8335418 16.87094,7.4825722 16.735115,7.2233231 16.59778,6.9611346 16.388142,6.8434198 16.190944,6.7608196 16.008853,6.6845218 15.858432,6.6371482 15.690703,6.4962366 15.522977,6.3553385 15.328804,6.1113715 15.127933,5.6378922 14.927076,5.1644129 14.888403,4.8668193 14.903651,4.6482895 c 0.01519,-0.2185297 0.08131,-0.36072 0.152967,-0.5446687 0.0717,-0.1839516 0.15205,-0.4132972 0.05013,-0.7208856 C 15.019944,3.1207346 14.802853,2.8245685 14.401861,2.4303398 14.000874,2.0361085 13.716371,1.8292912 13.437038,1.7420105 13.157706,1.6547113 12.948656,1.7053389 12.713034,1.8045389 12.553354,1.8702402 12.390801,1.9475473 12.18127,1.9657691 11.963049,1.9847662 11.657593,1.9502649 11.180789,1.7575134 10.703974,1.5647541 10.462541,1.3807291 10.318805,1.2154282 10.170856,1.0452881 10.12066,0.89648615 10.041296,0.71571774 9.9618949,0.53494671 9.8460346,0.31669215 9.570512,0.17828348 9.3322884,0.05862316 8.9850129,0.00103981 8.466676,0 Z m 0,0.53071634 c 0.4724146,0.001058 0.7178361,0.0511023 0.8573332,0.11627183 0.1304272,0.0655002 0.1705059,0.14544063 0.2341001,0.28732063 0.067701,0.154289 0.1484717,0.3838258 0.3570929,0.6237338 0.2086108,0.2399212 0.5233318,0.4711262 1.0542258,0.6857455 0.547759,0.2214505 0.940077,0.27661 1.256802,0.2490801 0.316717,-0.027501 0.538642,-0.1397346 0.694548,-0.2036049 0.15592,-0.0639 0.231005,-0.078524 0.356059,-0.043925 0.136857,0.037798 0.393767,0.2017665 0.756562,0.5643061 0.422131,0.4134004 0.527722,0.6126328 0.573622,0.7482739 0.0335,0.1127176 0.02297,0.1887244 -0.03824,0.3457147 -0.0612,0.1569983 -0.170121,0.3866636 -0.192241,0.7038322 -0.02209,0.3171612 0.0394,0.7109763 0.26304,1.238166 0.223642,0.5271896 0.461971,0.8465958 0.705401,1.0510973 0.243422,0.2044989 0.480226,0.2863093 0.635635,0.3513993 0.155407,0.065101 0.222179,0.1001442 0.289912,0.2294432 0.0677,0.1292991 0.130916,0.3957279 0.135396,0.920356 0.005,0.5246311 -0.05641,0.8054199 -0.12196,0.9358593 -0.0614,0.1118313 -0.120659,0.154467 -0.274925,0.2222084 -0.154277,0.067699 -0.396779,0.1520721 -0.63667,0.3607011 -0.239904,0.2086282 -0.474252,0.5361882 -0.688864,1.0671172 -0.21461,0.53093 -0.269898,0.928144 -0.242368,1.244883 0.0275,0.316752 0.147264,0.560474 0.197926,0.684196 0.0639,0.155929 0.08924,0.23507 0.04754,0.368452 -0.0476,0.152317 -0.196023,0.38137 -0.563804,0.755509 -0.367769,0.374131 -0.599399,0.523057 -0.737957,0.568956 -0.113737,0.0377 -0.200623,0.02596 -0.35761,-0.03514 -0.156987,-0.0612 -0.381021,-0.170623 -0.698166,-0.192753 -0.317146,-0.02209 -0.717241,0.0399 -1.244399,0.263549 -0.527145,0.22366 -0.848187,0.466586 -1.052675,0.710034 -0.2044915,0.24344 -0.2908441,0.495237 -0.3498582,0.636136 -0.047502,0.113469 -0.085716,0.21183 -0.2149793,0.279569 -0.1507077,0.0789 -0.4092298,0.13298 -0.9338163,0.137459 -0.025109,2.12e-4 -0.042663,-0.0011 -0.066664,-0.0021 -0.023998,1.01e-4 -0.041564,0.0021 -0.066664,0.0021 -0.5245971,-0.004 -0.7831191,-0.05851 -0.9338163,-0.137459 C 7.336898,16.199504 7.298739,16.101104 7.2512159,15.987635 7.1922188,15.846738 7.105849,15.59495 6.901358,15.3515 6.6968697,15.108062 6.3758282,14.865126 5.8486832,14.641466 5.3215249,14.417807 4.9214399,14.355795 4.6042839,14.377917 4.2871385,14.400007 4.0631071,14.509479 3.906118,14.57067 3.7491316,14.631869 3.6622447,14.643509 3.5485081,14.605809 3.4099503,14.55991 3.1783278,14.410984 2.8105505,14.036853 2.4427706,13.662714 2.2943385,13.433661 2.2467467,13.281344 2.2050447,13.147962 2.2304738,13.068821 2.2942901,12.912892 2.3449908,12.78917 2.4646852,12.545448 2.4922157,12.228696 2.5197172,11.911957 2.4645117,11.514743 2.2498473,10.983813 2.0352358,10.452884 1.8008843,10.125324 1.5609834,9.9166958 1.3210903,9.7080668 1.0785911,9.6237331 0.92431399,9.5559947 0.7700475,9.488293 0.71077077,9.4456176 0.64938857,9.3337863 0.58388669,9.2033469 0.5229285,8.9225581 0.52742916,8.397927 0.53142448,7.8732989 0.59512682,7.6068701 0.66282478,7.477571 0.73052539,7.348272 0.79732988,7.3132287 0.95273674,7.2481278 1.1081462,7.1830272 1.3449499,7.1012274 1.5883726,6.8967285 1.8318032,6.692227 2.0701314,6.3728208 2.2937734,5.8456312 2.5174233,5.3184415 2.5789353,4.9246264 2.5568129,4.6074652 2.5347197,4.2902966 2.4257555,4.0606313 2.3645718,3.903633 2.3033695,3.7466427 2.292828,3.6706359 2.3263303,3.5579183 2.3722314,3.4222772 2.477821,3.2230448 2.899953,2.8096444 3.2627508,2.4471048 3.5196688,2.2831182 3.6565145,2.2453383 3.7815703,2.2108366 3.856654,2.2254697 4.0125742,2.2892633 4.168489,2.3531654 4.3903952,2.4653278 4.7071226,2.4928682 5.0238364,2.5203664 5.4161653,2.4651673 5.9639245,2.2437881 6.4948186,2.0291688 6.8095284,1.7979638 7.0181498,1.5580426 7.2267602,1.3181346 7.3075104,1.0885978 7.3752427,0.9343088 7.4388449,0.7924288 7.4789157,0.71250951 7.6093429,0.64698817 7.74884,0.58189016 7.9942534,0.53189638 8.466676,0.53071634 Z M 8.3007906,4.2359123 C 7.5193773,4.2664621 6.7423231,4.5134392 6.0641792,4.9805687 4.6861761,5.9297876 4.0146038,7.5890071 4.3004189,9.203045 L 4.7624176,8.3943096 C 4.787223,6.4886621 6.3485946,4.7674609 8.466676,4.761461 c 2.04709,0 3.703225,1.6625682 3.703225,3.7051957 v 2.0469003 c 0.07145,-0.129349 0.138967,-0.262011 0.197409,-0.400491 C 13.099094,8.379008 12.597892,6.3721554 11.138414,5.1836569 10.317457,4.5151178 9.3054624,4.1966122 8.3007906,4.2359123 Z m 0.1669189,1.0552315 v 0.5637891 c 0.083563,-0.0217 0.1661241,-0.033906 0.2635564,-0.034106 0.5813934,0 1.0583595,0.4707528 1.0583595,1.058332 0,0.5875694 -0.4769661,1.0588489 -1.0583595,1.0588489 -0.097398,-1e-4 -0.1885846,-0.014557 -0.2635564,-0.035656 v 0.5648225 h 0.9963463 c 0.2291887,-3.175e-4 0.3505196,0.2708264 0.1974089,0.4413163 -0.087022,0.09697 -0.136766,0.2215761 -0.1369459,0.3519161 0,0.2953696 0.2394634,0.5291661 0.5296972,0.5291661 0.290225,0 0.52918,-0.2337965 0.52918,-0.5291661 -2.62e-4,-0.1303498 -0.04768,-0.2550162 -0.13488,-0.3519161 -0.152495,-0.1697898 -0.03288,-0.4403162 0.195342,-0.4413163 l 0.996863,-2.585e-4 c 0,-1.756546 -1.425535,-3.1752013 -3.1730115,-3.175772 z M 7.938013,5.3355855 C 6.4318478,5.5894751 5.2910807,6.8989652 5.2910807,8.4671734 H 7.938013 V 7.4693028 C 7.937669,7.240103 8.2088464,7.1188092 8.3793407,7.271899 c 0.096974,0.08704 0.2215909,0.1367624 0.3519252,0.1369424 0.2953902,0 0.5291798,-0.2394633 0.5291798,-0.5296829 0,-0.2902194 -0.2337896,-0.5291659 -0.5291798,-0.5291659 -0.1303563,2.6e-4 -0.254993,0.047675 -0.3519252,0.1348754 C 8.2095346,6.6373577 7.9393132,6.5177509 7.938013,6.2895311 Z M 5.028041,8.9968562 4.3712173,10.146656 5.0916048,10.325973 c 0.096913,0.02455 0.1716241,0.10187 0.1932744,0.19947 l 0.4904216,2.202964 1.6092439,0.230476 0.5529515,-0.185 v -0.902787 c -0.074975,0.0212 -0.166154,0.03557 -0.2635564,0.03566 -0.5813942,0 -1.0583595,-0.47128 -1.0583595,-1.058849 0,-0.587579 0.4769653,-1.0583321 1.0583595,-1.0583321 0.097435,2e-4 0.1799944,0.012406 0.2635564,0.034106 V 8.9968562 Z m 3.4391517,0 v 1.2614208 c -0.0013,0.228239 -0.2715184,0.347826 -0.4413277,0.195336 -0.096932,-0.08718 -0.2215718,-0.134615 -0.3519252,-0.134875 -0.2953931,0 -0.5291797,0.238946 -0.5291797,0.529166 0,0.29022 0.2337866,0.529682 0.5291797,0.529682 0.1303344,-1.8e-4 0.254953,-0.04994 0.3519252,-0.136941 0.1704964,-0.15309 0.4416717,-0.03178 0.4413277,0.197403 v 1.260904 c 1.2243085,0 2.3785663,-0.531331 3.1735283,-1.43092 V 8.9968562 h -0.562253 c 0.0217,0.08355 0.03391,0.1661497 0.03411,0.2635496 0,0.5813593 -0.470758,1.0583322 -1.058358,1.0583322 -0.5875993,0 -1.058877,-0.4769729 -1.058877,-1.0583322 8.99e-5,-0.09741 0.014558,-0.1885496 0.035657,-0.2635496 z"
       id="path12145"
       inkscape:connector-curvature="0"
       sodipodi:nodetypes="cccccccccccccccccccccccccccccccccccccccccccccccccccccccccccccccccccccccccccccccccccccccccccccccccccccccccccccccccccccccccccccccccccccccccccccccccccccccccccccccccccccccccccccccccccccccccccccccccccccccccc" />
  </g>
</svg>
