<svg width="512" height="512" viewBox="0 0 512 512" fill="none" xmlns="http://www.w3.org/2000/svg">
<g clip-path="url(#clip0_51_2)">
<path d="M372.29 50.758H28.831C12.933 50.758 0 63.691 0 79.588V285.644C0 301.541 12.933 314.475 28.831 314.475H51.102V391.185C51.102 396.069 54.044 400.474 58.558 402.344C60.052 402.964 61.622 403.264 63.178 403.264C66.322 403.264 69.41 402.036 71.721 399.726L156.972 314.476H174.076C180.747 314.476 186.154 309.069 186.154 302.398C186.154 295.726 180.745 290.319 174.076 290.319C174.076 290.319 151.386 290.335 151.149 290.359C148.337 290.55 145.577 291.708 143.427 293.857L75.258 362.026C75.258 362.026 75.237 301.634 75.198 301.321C74.653 295.155 69.481 290.319 63.174 290.319H28.831C26.253 290.319 24.157 288.222 24.157 285.645V79.588C24.157 77.01 26.254 74.914 28.831 74.914H372.29C374.868 74.914 376.964 77.011 376.964 79.588V158.643C376.964 165.314 382.373 170.721 389.042 170.721C395.711 170.721 401.12 165.314 401.12 158.643V79.588C401.12 63.691 388.187 50.758 372.29 50.758Z" fill="#3C5DFE"/>
<path d="M483.169 198.492H242.754C226.857 198.492 213.923 211.425 213.923 227.323V367.893C213.923 383.79 226.856 396.724 242.754 396.724H393.268L454.248 457.704C456.559 460.015 459.648 461.242 462.791 461.242C464.347 461.242 465.917 460.941 467.411 460.322C471.923 458.452 474.867 454.049 474.867 449.163V396.723H483.168C499.065 396.723 511.999 383.79 511.999 367.892V227.322C512 211.425 499.067 198.492 483.169 198.492ZM487.844 367.893C487.844 370.47 485.747 372.567 483.17 372.567H462.794C456.438 372.567 451.24 377.479 450.763 383.714C450.732 383.978 450.712 420.004 450.712 420.004L406.858 376.149C406.812 376.103 406.764 376.06 406.718 376.014C406.546 375.846 406.383 375.7 406.229 375.569C404.103 373.705 401.326 372.566 398.278 372.566H242.754C240.176 372.566 238.08 370.469 238.08 367.892V227.322C238.08 224.744 240.177 222.648 242.754 222.648H483.17C485.747 222.648 487.844 224.745 487.844 227.322V367.893V367.893Z" fill="#3C5DFE"/>
<path d="M362.964 285.53C356.297 285.53 350.886 290.941 350.886 297.608C350.886 304.275 356.297 309.686 362.964 309.686C369.632 309.686 375.042 304.275 375.042 297.608C375.042 290.941 369.631 285.53 362.964 285.53Z" fill="#3C5DFE"/>
<path d="M310.472 130.611H90.65C83.98 130.611 78.572 136.018 78.572 142.689C78.572 149.36 83.981 154.767 90.65 154.767H310.472C317.142 154.767 322.55 149.36 322.55 142.689C322.55 136.018 317.142 130.611 310.472 130.611Z" fill="#3C5DFE"/>
<path d="M174.075 210.465H90.65C83.98 210.465 78.572 215.872 78.572 222.543C78.572 229.214 83.981 234.621 90.65 234.621H174.075C180.746 234.621 186.153 229.214 186.153 222.543C186.153 215.872 180.745 210.465 174.075 210.465Z" fill="#3C5DFE"/>
<path d="M306.837 285.53C300.171 285.53 294.759 290.941 294.759 297.608C294.759 304.275 300.171 309.686 306.837 309.686C313.505 309.686 318.915 304.275 318.915 297.608C318.915 290.941 313.505 285.53 306.837 285.53Z" fill="#3C5DFE"/>
<path d="M419.079 285.53C412.412 285.53 407.001 290.941 407.001 297.608C407.001 304.275 412.412 309.686 419.079 309.686C425.747 309.686 431.157 304.275 431.157 297.608C431.157 290.941 425.746 285.53 419.079 285.53Z" fill="#3C5DFE"/>
</g>
<defs>
<clipPath id="clip0_51_2">
<rect width="511.999" height="511.999" fill="white"/>
</clipPath>
</defs>
</svg>
