<svg xmlns="http://www.w3.org/2000/svg" version="1.1" xmlns:xlink="http://www.w3.org/1999/xlink" xmlns:svgjs="http://svgjs.dev/svgjs" width="2000" height="575" viewBox="0 0 2000 575"><g transform="matrix(1,0,0,1,-1.2121184084941206,-1.248420667231187)"><svg viewBox="0 0 396 114" data-background-color="#17181e" preserveAspectRatio="xMidYMid meet" height="575" width="2000" xmlns="http://www.w3.org/2000/svg" xmlns:xlink="http://www.w3.org/1999/xlink"><defs></defs><g id="tight-bounds" transform="matrix(1,0,0,1,0.2399994448818461,0.24751296706844528)"><svg viewBox="0 0 395.52 113.50497406586312" height="113.50497406586312" width="395.52"><g><svg viewBox="0 0 663.3423134471113 190.3637036928702" height="113.50497406586312" width="395.52"><g><rect width="12.42199367175488" height="165.29409872029248" x="222.88201173411332" y="12.534802486288854" fill="#ffffff" opacity="1" stroke-width="0" stroke="transparent" fill-opacity="1" class="rect-o-0" data-fill-palette-color="primary" rx="1%" id="o-0" data-palette-color="#ffffff"></rect></g><g transform="matrix(1,0,0,1,267.82231344711136,26.309310712979894)"><svg viewBox="0 0 395.52 137.7450822669104" height="137.7450822669104" width="395.52"><g><svg viewBox="0 0 395.52 137.7450822669104" height="137.7450822669104" width="395.52"><g><svg viewBox="0 0 395.52 137.7450822669104" height="137.7450822669104" width="395.52"><g transform="matrix(1,0,0,1,0,0)"><svg width="395.52" viewBox="4.400000095367432 -37.599998474121094 109.38999938964844 38.099998474121094" height="137.7450822669104" data-palette-color="#ffffff"><path d="M5.1-37.1L9.8-37.1Q10.45-37.1 10.45-36.35L10.45-36.35 10.45-0.95Q10.45-0.4 10.23-0.2 10 0 9.4 0L9.4 0 5.3 0Q4.75 0 4.58-0.18 4.4-0.35 4.4-0.8L4.4-0.8 4.4-36.35Q4.4-37.1 5.1-37.1L5.1-37.1ZM17.8 0L17.8 0Q17.4 0 17.22-0.15 17.05-0.3 17.05-0.7L17.05-0.7 17.05-2.1Q17.05-2.55 17.17-2.83 17.3-3.1 17.7-3.65L17.7-3.65 36.4-32Q36.7-32.5 36.1-32.5L36.1-32.5 18.7-32.5Q18.3-32.5 18.17-32.68 18.05-32.85 18.05-33.2L18.05-33.2 18.05-36.5Q18.05-37.1 18.55-37.1L18.55-37.1 44.4-37.1Q44.95-37.1 44.95-36.5L44.95-36.5 44.95-34.95Q44.95-34.6 44.85-34.38 44.75-34.15 44.45-33.75L44.45-33.75 25.4-5.1Q25.25-4.85 25.37-4.73 25.5-4.6 25.7-4.6L25.7-4.6 44.2-4.6Q44.85-4.6 44.85-4.05L44.85-4.05 44.85-0.65Q44.85-0.4 44.7-0.2 44.55 0 44.15 0L44.15 0 17.8 0ZM50.15 0L50.15 0Q49.75 0 49.57-0.15 49.4-0.3 49.4-0.7L49.4-0.7 49.4-2.1Q49.4-2.55 49.52-2.83 49.65-3.1 50.05-3.65L50.05-3.65 68.75-32Q69.05-32.5 68.45-32.5L68.45-32.5 51.05-32.5Q50.65-32.5 50.52-32.68 50.4-32.85 50.4-33.2L50.4-33.2 50.4-36.5Q50.4-37.1 50.9-37.1L50.9-37.1 76.75-37.1Q77.3-37.1 77.3-36.5L77.3-36.5 77.3-34.95Q77.3-34.6 77.2-34.38 77.09-34.15 76.8-33.75L76.8-33.75 57.75-5.1Q57.6-4.85 57.72-4.73 57.85-4.6 58.05-4.6L58.05-4.6 76.55-4.6Q77.2-4.6 77.2-4.05L77.2-4.05 77.2-0.65Q77.2-0.4 77.05-0.2 76.9 0 76.5 0L76.5 0 50.15 0ZM97.59 0.5L97.59 0.5Q92.54 0.5 88.89-1.73 85.24-3.95 83.29-8.18 81.34-12.4 81.34-18.4L81.34-18.4Q81.34-24.45 83.34-28.75 85.34-33.05 88.99-35.33 92.64-37.6 97.64-37.6L97.64-37.6Q102.59-37.6 106.22-35.33 109.84-33.05 111.82-28.78 113.79-24.5 113.79-18.45L113.79-18.45Q113.79-12.45 111.84-8.22 109.89-4 106.24-1.75 102.59 0.5 97.59 0.5L97.59 0.5ZM97.64-3.95L97.64-3.95Q102.64-3.95 105.07-7.43 107.49-10.9 107.49-18.4L107.49-18.4Q107.49-26 105.02-29.6 102.54-33.2 97.64-33.2L97.64-33.2Q92.64-33.2 90.14-29.58 87.64-25.95 87.64-18.4L87.64-18.4Q87.64-10.95 90.14-7.45 92.64-3.95 97.64-3.95L97.64-3.95Z" opacity="1" transform="matrix(1,0,0,1,0,0)" fill="#ffffff" class="undefined-text-0" data-fill-palette-color="primary" id="text-0"></path></svg></g></svg></g></svg></g></svg></g><g><svg viewBox="0 0 190.3637036928702 190.3637036928702" height="190.3637036928702" width="190.3637036928702"><g><svg xmlns="http://www.w3.org/2000/svg" xmlns:xlink="http://www.w3.org/1999/xlink" version="1.1" x="0" y="0" viewBox="1 1 62 62" style="enable-background:new 0 0 64 64;" xml:space="preserve" height="190.3637036928702" width="190.3637036928702" class="icon-icon-0" data-fill-palette-color="accent" id="icon-0"><g fill="#ffffff" data-fill-palette-color="accent"><path d="M33 37h16v-2H33v-6h2v-2h-2v-4h12v-2H33V10c0-4.962-4.038-9-9-9-3.607 0-6.717 2.138-8.152 5.21l-0.047 0.01C10.701 7.255 7 11.789 7 17c0 1.26 0.214 2.493 0.638 3.676C3.577 22.964 1 27.311 1 32c0 4.253 2.108 8.238 5.562 10.656C5.578 44.204 5 46.034 5 48c0 5.514 4.486 10 10 10 0.301 0 0.607-0.016 0.923-0.047C17.42 61.001 20.571 63 24 63c4.962 0 9-4.038 9-9V43h7v-2h-7V37zM31 54c0 3.86-3.14 7-7 7-2.875 0-5.499-1.808-6.531-4.499l-0.294-0.768-0.81 0.14C15.875 55.959 15.428 56 15 56c-4.411 0-8-3.589-8-8s3.589-8 8-8v-2c-2.822 0-5.369 1.18-7.189 3.066C4.834 39.026 3 35.636 3 32c0-4.235 2.486-8.14 6.333-9.949l0.896-0.421L9.817 20.73C9.275 19.543 9 18.289 9 17c0-3.889 2.522-7.309 6.14-8.526C15.054 8.971 15 9.479 15 10c0 1.582 0.417 3.138 1.205 4.5l1.731-1.001C17.324 12.441 17 11.23 17 10c0-3.86 3.14-7 7-7s7 3.14 7 7V54z" fill="#ffffff" data-fill-palette-color="accent"></path><path d="M24 57v2c2.757 0 5-2.243 5-5h-2C27 55.654 25.654 57 24 57z" fill="#ffffff" data-fill-palette-color="accent"></path><path d="M11 48H9c0 3.309 2.691 6 6 6v-2C12.794 52 11 50.206 11 48z" fill="#ffffff" data-fill-palette-color="accent"></path><path d="M57 50.184V46c0-2.757-2.243-5-5-5H42v2h10c1.654 0 3 1.346 3 3v4.184c-1.161 0.414-2 1.514-2 2.816 0 1.654 1.346 3 3 3s3-1.346 3-3C59 51.698 58.161 50.598 57 50.184zM56 54c-0.551 0-1-0.449-1-1s0.449-1 1-1 1 0.449 1 1S56.551 54 56 54z" fill="#ffffff" data-fill-palette-color="accent"></path><path d="M60 33c-1.302 0-2.402 0.839-2.816 2H51v2h6.184c0.414 1.161 1.514 2 2.816 2 1.654 0 3-1.346 3-3S61.654 33 60 33zM60 37c-0.551 0-1-0.449-1-1s0.449-1 1-1 1 0.449 1 1S60.551 37 60 37z" fill="#ffffff" data-fill-palette-color="accent"></path><path d="M57.184 27H37v2h20.184c0.414 1.161 1.514 2 2.816 2 1.654 0 3-1.346 3-3s-1.346-3-3-3C58.698 25 57.598 25.839 57.184 27zM60 27c0.551 0 1 0.449 1 1s-0.449 1-1 1-1-0.449-1-1S59.449 27 60 27z" fill="#ffffff" data-fill-palette-color="accent"></path><path d="M57 18v-4.184c1.161-0.414 2-1.514 2-2.816 0-1.654-1.346-3-3-3s-3 1.346-3 3c0 1.302 0.839 2.402 2 2.816V18c0 1.654-1.346 3-3 3h-5v2h5C54.757 23 57 20.757 57 18zM56 10c0.551 0 1 0.449 1 1s-0.449 1-1 1-1-0.449-1-1S55.449 10 56 10z" fill="#ffffff" data-fill-palette-color="accent"></path><path d="M11.879 26.879c-1.95 1.949-1.95 5.122 0 7.071l1.414-1.414c-1.169-1.17-1.169-3.073 0-4.243 1.17-1.171 3.073-1.17 4.243 0l1.414-1.414C17 24.93 13.828 24.929 11.879 26.879z" fill="#ffffff" data-fill-palette-color="accent"></path><path d="M24 5c-2.757 0-5 2.243-5 5h2c0-1.654 1.346-3 3-3s3 1.346 3 3h2C29 7.243 26.757 5 24 5z" fill="#ffffff" data-fill-palette-color="accent"></path><path d="M28 24c0-2.757-2.243-5-5-5v2c1.654 0 3 1.346 3 3s-1.346 3-3 3v2C25.757 29 28 26.757 28 24z" fill="#ffffff" data-fill-palette-color="accent"></path><path d="M18 45c0 2.757 2.243 5 5 5v-2c-1.654 0-3-1.346-3-3s1.346-3 3-3v-2C20.243 40 18 42.243 18 45z" fill="#ffffff" data-fill-palette-color="accent"></path></g></svg></g></svg></g></svg></g></svg><rect width="395.52" height="113.50497406586312" fill="none" stroke="none" visibility="hidden"></rect></g></svg></g></svg>