<svg width="52" height="52" viewBox="0 0 52 52" fill="none" xmlns="http://www.w3.org/2000/svg">
<path d="M26 35.75C31.3853 35.75 35.75 31.3853 35.75 26V9.75C35.75 4.36475 31.3853 0 26 0C20.6148 0 16.25 4.36475 16.25 9.75V26C16.25 31.3853 20.6148 35.75 26 35.75Z" fill="#707070"/>
<path d="M42.25 26V19.5H39V25.493C39 31.733 34.8335 37.479 28.717 38.7237C20.3645 40.4235 13 34.0568 13 26V19.5H9.75V26C9.75 33.8455 15.3432 40.4105 22.75 41.9218V48.75H16.25V52H35.75V48.75H29.25V41.9218C36.6567 40.4105 42.25 33.8455 42.25 26Z" fill="#707070"/>
</svg>
