<svg width="52" height="52" viewBox="0 0 52 52" fill="none" xmlns="http://www.w3.org/2000/svg">
<path d="M2.16666 2.16663L49.8333 49.8333" stroke="#707070" stroke-width="2" stroke-linecap="round" stroke-linejoin="round"/>
<path d="M19.5 19.5V26C19.5011 27.2848 19.883 28.5404 20.5973 29.6083C21.3116 30.6761 22.3263 31.5084 23.5133 31.9999C24.7003 32.4914 26.0064 32.6201 27.2665 32.3697C28.5266 32.1194 29.6843 31.5013 30.5933 30.5934M32.5 20.2367V8.6667C32.5016 7.05477 31.9042 5.49973 30.8238 4.30347C29.7434 3.10721 28.257 2.35508 26.6532 2.19308C25.0495 2.03108 23.4427 2.47078 22.1449 3.42681C20.8471 4.38284 19.9508 5.787 19.63 7.3667" stroke="#707070" stroke-width="2" stroke-linecap="round" stroke-linejoin="round"/>
<path d="M36.8333 36.725C34.7182 38.8839 32.0063 40.3616 29.0455 40.9686C26.0847 41.5756 23.0101 41.2841 20.2161 40.1316C17.4221 38.979 15.0361 37.018 13.3644 34.5001C11.6926 31.9822 10.8112 29.0222 10.8333 26V21.6666M41.1667 21.6666V26C41.1659 26.8936 41.0861 27.7854 40.9283 28.665" stroke="#707070" stroke-width="2" stroke-linecap="round" stroke-linejoin="round"/>
<path d="M26 41.1666V49.8333" stroke="#707070" stroke-width="2" stroke-linecap="round" stroke-linejoin="round"/>
<path d="M17.3333 49.8334H34.6667" stroke="#707070" stroke-width="2" stroke-linecap="round" stroke-linejoin="round"/>
</svg>
