<svg width="70" height="70" viewBox="0 0 70 70" fill="none" xmlns="http://www.w3.org/2000/svg">
<g clip-path="url(#clip0_10_2)">
<path d="M70 35C70 15.7016 54.2984 0 35 0C15.7016 0 0 15.7016 0 35C0 45.1933 4.38327 54.3811 11.3604 60.7829L11.3273 60.8122L12.4625 61.7693C12.5364 61.8316 12.6165 61.8825 12.6904 61.9436C13.2936 62.4438 13.9185 62.9185 14.5549 63.378C14.7611 63.5269 14.9673 63.6758 15.1773 63.8209C15.8569 64.2893 16.5544 64.7335 17.2671 65.1547C17.4224 65.2464 17.5789 65.3355 17.7355 65.4245C18.5156 65.8687 19.3124 66.2875 20.1282 66.6718C20.188 66.6998 20.2491 66.7253 20.3089 66.7533C22.9676 67.9891 25.8058 68.8965 28.7738 69.4324C28.8515 69.4464 28.9291 69.4604 29.008 69.4744C29.9295 69.6335 30.8611 69.7607 31.8042 69.846C31.9187 69.8562 32.0333 69.8625 32.1491 69.8727C33.0884 69.9504 34.0378 70 35 70C35.9533 70 36.8938 69.9504 37.828 69.8753C37.9464 69.8651 38.0647 69.8587 38.1831 69.8485C39.1185 69.7633 40.0425 69.6398 40.9551 69.4833C41.034 69.4693 41.1142 69.4553 41.1931 69.44C44.1165 68.9156 46.914 68.0285 49.5384 66.8245C49.6351 66.78 49.7331 66.738 49.8298 66.6922C50.6151 66.3231 51.3825 65.9247 52.1347 65.5009C52.3218 65.3953 52.5076 65.2884 52.6935 65.1789C53.3782 64.7755 54.0515 64.3542 54.7056 63.9062C54.9411 63.7458 55.1715 63.5765 55.4044 63.4085C55.9631 63.0064 56.5116 62.5915 57.0449 62.1575C57.1633 62.062 57.2905 61.9793 57.4064 61.8813L58.5709 60.9089L58.5365 60.8796C65.5747 54.4753 70 45.2455 70 35ZM2.54545 35C2.54545 17.1042 17.1042 2.54545 35 2.54545C52.8958 2.54545 67.4545 17.1042 67.4545 35C67.4545 44.6435 63.2227 53.3133 56.5231 59.262C56.1489 59.0036 55.7722 58.772 55.3865 58.5785L44.6104 53.1911C43.6431 52.7075 43.0424 51.7351 43.0424 50.6545V46.8911C43.2918 46.5831 43.5553 46.2344 43.8276 45.8513C45.2225 43.8811 46.3413 41.6895 47.1571 39.3311C48.7696 38.5649 49.8107 36.9587 49.8107 35.1451V30.6333C49.8107 29.5298 49.406 28.4595 48.6818 27.6182V21.6784C48.748 21.0178 48.9822 17.29 46.2853 14.2151C43.9396 11.5373 40.1431 10.1818 35 10.1818C29.8569 10.1818 26.0604 11.5373 23.7147 14.2138C21.0178 17.2887 21.252 21.0165 21.3182 21.6771V27.6169C20.5953 28.4582 20.1893 29.5285 20.1893 30.632V35.1438C20.1893 36.5451 20.818 37.8522 21.8947 38.7342C22.9256 42.7725 25.0473 45.8296 25.8313 46.8656V50.5489C25.8313 51.5875 25.2649 52.542 24.3524 53.0409L14.2889 58.5302C13.9682 58.7045 13.65 58.9082 13.3318 59.136C6.71491 53.1898 2.54545 44.5735 2.54545 35ZM54.0387 61.2589C53.5933 61.5822 53.1402 61.8953 52.6807 62.1944C52.4695 62.3318 52.2595 62.4693 52.0444 62.6029C51.4436 62.9745 50.8327 63.3284 50.2091 63.6593C50.0716 63.7318 49.9329 63.8005 49.7942 63.8718C48.3611 64.6062 46.8784 65.2375 45.3549 65.7504C45.3015 65.7682 45.248 65.7873 45.1933 65.8051C44.3953 66.0698 43.5871 66.3053 42.77 66.5076C42.7675 66.5076 42.7649 66.5089 42.7624 66.5089C41.9376 66.7125 41.1027 66.8818 40.2627 67.0205C40.2398 67.0244 40.2169 67.0295 40.194 67.0333C39.4036 67.1618 38.6069 67.2547 37.8076 67.3247C37.6664 67.3375 37.5251 67.3464 37.3825 67.3565C36.5922 67.4164 35.798 67.4545 35 67.4545C34.1931 67.4545 33.3887 67.4151 32.5882 67.3553C32.4495 67.3451 32.3107 67.3362 32.1733 67.3235C31.3664 67.2522 30.5633 67.1567 29.7678 67.0269C29.7322 67.0205 29.6965 67.0142 29.6609 67.0078C27.9784 66.7265 26.3225 66.3129 24.71 65.772C24.6604 65.7555 24.6095 65.7376 24.5598 65.7211C23.7593 65.4487 22.9676 65.1471 22.19 64.8136C22.1849 64.8111 22.1785 64.8085 22.1735 64.806C21.4378 64.4891 20.7162 64.1378 20.0035 63.7675C19.9105 63.7191 19.8164 63.6733 19.7247 63.6236C19.0744 63.2762 18.438 62.9007 17.8105 62.5087C17.6247 62.3916 17.4402 62.2733 17.2569 62.1536C16.6791 61.7756 16.1089 61.3824 15.554 60.9662C15.4967 60.9229 15.442 60.8771 15.3847 60.8338C15.4255 60.8109 15.4662 60.788 15.5069 60.7651L25.5704 55.2758C27.3013 54.3315 28.3767 52.5204 28.3767 50.5489L28.3755 45.9645L28.0827 45.6107C28.0547 45.5789 25.3031 42.2316 24.2633 37.6995L24.1475 37.1955L23.7135 36.9142C23.1013 36.5184 22.7347 35.8565 22.7347 35.1425V30.6307C22.7347 30.0389 22.9855 29.4878 23.4436 29.0742L23.8636 28.6949V21.6058L23.8522 21.4391C23.8484 21.4085 23.4729 18.3476 25.6289 15.89C27.4693 13.7925 30.6231 12.7273 35 12.7273C39.3604 12.7273 42.504 13.7836 44.3495 15.8658C46.5029 18.298 46.1504 21.4162 46.1478 21.4416L46.1364 28.6975L46.5564 29.0767C47.0133 29.4891 47.2653 30.0415 47.2653 30.6333V35.1451C47.2653 36.0525 46.648 36.876 45.7622 37.1496L45.1296 37.3444L44.926 37.9744C44.1751 40.3073 43.106 42.462 41.7493 44.3787C41.4158 44.8496 41.0913 45.2671 40.8125 45.5865L40.4969 45.9467V50.6545C40.4969 52.7062 41.6373 54.5516 43.4725 55.468L54.2487 60.8555C54.3175 60.8898 54.3849 60.9255 54.4524 60.9611C54.3162 61.0642 54.1762 61.1596 54.0387 61.2589Z" fill="#FBFFFB"/>
</g>
<defs>
<clipPath id="clip0_10_2">
<rect width="70" height="70" fill="white"/>
</clipPath>
</defs>
</svg>
